<?xml version="1.0" standalone="no"?>
<!DOCTYPE svg PUBLIC "-//W3C//DTD SVG 20010904//EN"
 "http://www.w3.org/TR/2001/REC-SVG-20010904/DTD/svg10.dtd">
<svg version="1.0" xmlns="http://www.w3.org/2000/svg"
 width="2560.000000pt" height="2560.000000pt" viewBox="0 0 2560.000000 2560.000000"
 preserveAspectRatio="xMidYMid meet">

<g transform="translate(0.000000,2560.000000) scale(0.100000,-0.100000)"
fill="#000000" stroke="none">
<path d="M12880 20296 c-104 -27 -160 -52 -238 -105 -127 -86 -231 -239 -273
-398 l-20 -78 17 -2769 c16 -2607 16 -2797 0 -3230 -19 -517 -24 -575 -65
-693 -68 -196 -214 -356 -431 -467 -80 -42 -98 -48 -137 -43 -103 11 -190 90
-200 181 -12 102 36 182 145 243 85 47 167 124 200 188 23 44 27 65 30 168 2
64 1 117 -2 117 -3 0 -23 -6 -43 -14 -78 -30 -151 -41 -263 -40 -203 2 -153
-28 -792 475 -690 542 -756 587 -971 661 -84 29 -103 32 -222 32 -83 1 -148
-4 -180 -13 -111 -31 -226 -105 -327 -208 -121 -124 -178 -241 -209 -425 -11
-67 -11 -88 5 -170 34 -175 -67 -59 1273 -1474 671 -709 1251 -1325 1290
-1369 303 -346 752 -664 1223 -866 80 -34 244 -94 365 -134 242 -80 338 -118
430 -170 255 -142 412 -321 466 -533 17 -66 19 -111 19 -370 0 -269 2 -296 18
-309 9 -7 73 -49 142 -92 576 -361 1342 -543 2065 -491 207 15 369 37 560 76
355 73 575 145 1036 339 l67 28 7 191 c31 872 33 920 54 996 29 107 109 263
189 366 113 146 216 238 461 413 242 173 410 511 478 958 17 112 18 299 18
3463 l0 3345 -28 81 c-58 173 -192 325 -352 400 -118 55 -178 68 -305 67 -82
-1 -122 -7 -183 -26 -106 -34 -209 -98 -287 -178 -113 -116 -171 -238 -190
-405 -6 -58 -10 -789 -10 -2087 0 -1955 0 -2001 -20 -2096 -67 -329 -270 -604
-560 -760 -263 -141 -584 -170 -857 -77 -108 37 -259 119 -343 185 -72 58 -75
60 -84 38 -62 -153 -147 -277 -273 -398 -211 -204 -460 -303 -763 -303 -305 1
-566 109 -781 325 -189 190 -294 420 -319 694 -6 69 -10 1236 -10 3145 0 3338
4 3097 -63 3242 -87 187 -252 321 -463 373 -120 30 -182 30 -294 1z"/>
<path d="M7770 18040 c-267 -38 -507 -152 -694 -330 -181 -173 -291 -364 -351
-611 -22 -90 -25 -127 -25 -271 0 -230 30 -368 121 -554 98 -199 18 -115 1603
-1669 l488 -479 207 210 c624 630 1623 1659 1676 1727 66 83 148 229 188 337
51 137 61 210 61 425 0 186 -1 207 -26 296 -126 454 -467 787 -913 891 -128
30 -350 36 -481 14 -253 -43 -506 -175 -668 -347 -41 -43 -77 -79 -80 -79 -3
0 -45 40 -93 88 -177 177 -368 279 -631 337 -89 19 -294 27 -382 15z m363
-568 c144 -52 265 -143 352 -267 93 -131 115 -220 115 -465 0 -149 3 -180 15
-187 8 -5 24 -42 36 -83 26 -97 95 -242 163 -344 30 -45 116 -145 192 -224
l137 -144 193 193 193 193 -133 137 c-119 123 -138 148 -179 231 -57 118 -67
161 -68 300 -2 214 60 358 216 506 135 129 294 187 490 180 199 -8 364 -88
491 -237 138 -161 195 -381 154 -588 -16 -81 -92 -233 -147 -295 -99 -112
-1439 -1473 -1450 -1473 -11 0 -402 380 -1174 1140 -179 176 -344 346 -367
378 -45 60 -93 169 -112 252 -17 71 -14 239 5 310 21 81 85 209 135 270 86
104 227 194 360 230 82 22 305 14 383 -13z"/>
<path d="M14695 16705 c-201 -44 -378 -181 -465 -359 -80 -164 -74 -51 -78
-1456 -2 -784 1 -1286 7 -1336 29 -236 162 -430 364 -529 50 -24 119 -52 152
-60 76 -19 232 -19 315 0 188 44 357 179 444 355 81 164 77 84 74 1550 l-3
1295 -27 80 c-29 85 -78 174 -129 234 -158 185 -424 277 -654 226z"/>
<path d="M16501 16709 c-203 -40 -384 -174 -478 -355 -83 -160 -78 -70 -78
-1309 0 -1037 1 -1104 18 -1165 53 -186 177 -341 343 -427 268 -139 571 -95
787 115 106 103 174 237 197 388 7 46 10 419 8 1134 -4 1189 1 1103 -76 1260
-55 113 -188 243 -302 298 -133 64 -290 86 -419 61z"/>
</g>
</svg>
